<?xml version="1.0" encoding="utf-8"?>
<!-- Generator: Adobe Illustrator 23.0.1, SVG Export Plug-In . SVG Version: 6.00 Build 0)  -->
<svg version="1.1" id="레이어_1" xmlns="http://www.w3.org/2000/svg" xmlns:xlink="http://www.w3.org/1999/xlink" x="0px"
	 y="0px" viewBox="0 0 100 100" style="enable-background:new 0 0 100 100;" xml:space="preserve">
<style type="text/css">
	.st0{fill:#FFEA27;}
	.st1{fill:none;stroke:#00385B;stroke-width:0.75;stroke-miterlimit:10;}
	.st2{fill:#FFFFFF;}
</style>
<g>
	<path class="st0" d="M48.7,26.9c-3.2,0.1-6.3,0.8-9.2,1.9V16.2c0-5.4-4.4-9.7-9.7-9.7c-5.4,0-9.7,4.4-9.7,9.7v41.5v8.8v14
		c0,5.5,4.4,9.9,9.9,9.9l0,0c5.5,0,9.9-4.4,9.9-9.9V61.3c0-5.1,3.6-9.7,8.7-10.3c5.8-0.6,10.7,4,10.7,9.7v29.8h9.9
		c5.5,0,9.9-4.4,9.9-9.9V56.4C79.1,39.8,65.4,26.3,48.7,26.9z"/>
	<g>
		<path class="st0" d="M65.1,50.3v14h-8.2c-3.9,0-6.9-3.1-6.9-6.9l0,0c0-3.9,3.1-6.9,6.9-6.9h8.2V50.3z"/>
		<path class="st0" d="M65.1,64.2v14h-8.2c-3.9,0-6.9-3.1-6.9-6.9l0,0c0-3.9,3.1-6.9,6.9-6.9L65.1,64.2L65.1,64.2z"/>
		<path class="st0" d="M65.1,78.2v14h-8.2c-3.9,0-6.9-3.1-6.9-6.9l0,0c0-3.9,3.1-6.9,6.9-6.9L65.1,78.2L65.1,78.2z"/>
	</g>
	<path class="st1" d="M79.9,59.8"/>
	<path class="st2" d="M56.9,51.9h8.3v-3.2h-8.3c-4.7,0-8.5,3.7-8.6,8.5l0,0l0,0l0,0l0,0c0,2.9,1.4,5.4,3.6,6.9
		c-2.2,1.5-3.6,4.1-3.6,6.9l0,0l0,0l0,0l0,0c0,2.9,1.4,5.5,3.7,6.9c-2.2,1.5-3.6,4.1-3.7,6.9l0,0c0,0,0,0,0,0.1c0,0,0,0,0,0.1l0,0
		c0.1,4.6,3.9,8.5,8.6,8.5h9.6v-3.2h-9.6c-3,0-5.4-2.4-5.4-5.3c0-3,2.4-5.3,5.4-5.3h8.3v-3.3h-8.3c-3,0-5.4-2.4-5.4-5.4
		s2.4-5.4,5.4-5.4h8.3v-3.2h-8.3c-3,0-5.4-2.4-5.4-5.3C51.5,54.4,54,51.9,56.9,51.9z"/>
</g>
</svg>
