<?xml version="1.0" encoding="utf-8"?>
<!-- Generator: Adobe Illustrator 23.0.1, SVG Export Plug-In . SVG Version: 6.00 Build 0)  -->
<svg version="1.1" id="레이어_1" xmlns="http://www.w3.org/2000/svg" xmlns:xlink="http://www.w3.org/1999/xlink" x="0px"
	 y="0px" viewBox="0 0 100 100" style="enable-background:new 0 0 100 100;" xml:space="preserve">
<style type="text/css">
	.st0{fill:#FFE448;}
	.st1{fill:#00385B;}
	.st2{fill:none;stroke:#00385B;stroke-width:0.75;stroke-miterlimit:10;}
</style>
<g>
	<path class="st0" d="M49.2,30.4c-2.9,0.1-5.7,0.7-8.3,1.7V20.7c0-4.9-4-8.8-8.8-8.8c-4.9,0-8.8,4-8.8,8.8v37.6v8V79c0,5,4,9,9,9
		l0,0c5,0,9-4,9-9V61.6c0-4.6,3.3-8.8,7.9-9.3c5.3-0.5,9.7,3.6,9.7,8.8v27h9c5,0,9-4,9-9V57.2C76.8,42.1,64.4,29.9,49.2,30.4z"/>
	<path class="st1" d="M67.8,89.5H57.4V61.1c0-2.1-0.9-4.1-2.4-5.5c-1.6-1.4-3.6-2.1-5.7-1.9c-3.7,0.4-6.6,3.8-6.6,7.9v17.5
		c0,5.8-4.7,10.5-10.5,10.5s-10.4-4.7-10.4-10.5V20.7c0-5.7,4.6-10.3,10.3-10.3S42.4,15,42.4,20.7V30c2.3-0.7,4.5-1,6.9-1.1
		c7.7-0.2,15,2.6,20.6,8c5.5,5.4,8.6,12.6,8.6,20.3v21.9C78.3,84.9,73.6,89.5,67.8,89.5z M60.3,86.7h7.6c4.2,0,7.6-3.4,7.6-7.6V57.2
		c0-6.9-2.7-13.4-7.7-18.2s-11.6-7.4-18.5-7.2l0,0c-2.7,0.1-5.3,0.6-7.9,1.6l-2,0.7V20.7c0-4.1-3.3-7.4-7.4-7.4s-7.4,3.3-7.4,7.4
		v58.4c0,4.2,3.4,7.6,7.6,7.6s7.6-3.4,7.6-7.6V61.6c0-5.5,4-10.2,9.2-10.7c2.9-0.3,5.8,0.7,7.9,2.6c2.1,1.9,3.4,4.7,3.4,7.6
		C60.3,61.1,60.3,86.7,60.3,86.7z"/>
	<path class="st0" d="M50.3,56.4L50.3,56.4c0-3.5,2.8-6.3,6.3-6.3"/>
	<g>
		<path class="st0" d="M64.1,50.1v12.7h-7.4c-3.5,0-6.3-2.8-6.3-6.3l0,0c0-3.5,2.8-6.3,6.3-6.3h7.4V50.1z"/>
		<path class="st0" d="M64.1,62.7v12.7h-7.4c-3.5,0-6.3-2.8-6.3-6.3l0,0c0-3.5,2.8-6.3,6.3-6.3L64.1,62.7L64.1,62.7z"/>
		<path class="st0" d="M64.1,75.4v12.7h-7.4c-3.5,0-6.3-2.8-6.3-6.3l0,0c0-3.5,2.8-6.3,6.3-6.3L64.1,75.4L64.1,75.4z"/>
	</g>
	<path class="st2" d="M77.5,60.3"/>
	<path class="st1" d="M56.7,51.6h7.5v-2.9h-7.5c-4.3,0-7.7,3.4-7.8,7.7l0,0l0,0l0,0l0,0c0,2.6,1.3,4.9,3.3,6.3
		c-2,1.4-3.3,3.7-3.3,6.3l0,0l0,0l0,0l0,0c0,2.6,1.3,5,3.4,6.3c-2,1.4-3.3,3.7-3.4,6.3l0,0c0,0,0,0,0,0.1c0,0,0,0,0,0.1l0,0
		c0.1,4.2,3.5,7.7,7.8,7.7h8.7v-2.9h-8.7c-2.7,0-4.9-2.2-4.9-4.8c0-2.7,2.2-4.8,4.9-4.8h7.5v-3h-7.5c-2.7,0-4.9-2.2-4.9-4.9
		c0-2.7,2.2-4.9,4.9-4.9h7.5v-2.9h-7.5c-2.7,0-4.9-2.2-4.9-4.8C51.8,53.8,54,51.6,56.7,51.6z"/>
</g>
</svg>
